<svg version="1.2" baseProfile="tiny" xmlns="http://www.w3.org/2000/svg" viewBox="0 0 737.5 507.8"><linearGradient id="a" gradientUnits="userSpaceOnUse" x1="170.4" y1="107" x2="235.6" y2="107"><stop offset="0" stop-color="#0076f0"/><stop offset="1" stop-color="#377ce8"/></linearGradient><circle fill="url(#a)" cx="203" cy="107" r="32.6"/><circle fill="#F9A3D9" cx="685.4" cy="306.3" r="31.1"/><linearGradient id="b" gradientUnits="userSpaceOnUse" x1="362.2" y1="40.9" x2="402.2" y2="40.9"><stop offset="0" stop-color="#7a87da"/><stop offset=".72" stop-color="#8a8ad6"/><stop offset="1" stop-color="#8f8bd4"/></linearGradient><circle fill="url(#b)" cx="382.2" cy="40.9" r="20"/><linearGradient id="c" gradientUnits="userSpaceOnUse" x1="17.25" y1="258.653" x2="706.91" y2="258.653"><stop offset="0" stop-color="#0868fe"/><stop offset=".72" stop-color="#b394c3"/><stop offset="1" stop-color="#f9a3d9"/></linearGradient><path fill="url(#c)" d="M706.9 143.6c.1-65-52.5-118.5-117.4-119.6-38.4-.6-72.7 16.9-95 44.5-2.3 2.9-4.5 5.9-6.6 9-.1-.1-.2-.2-.3-.2-7.3 14.2-22.1 24-39.3 24-4.5 0-8.9-.7-13-2-1.1-.4-2.2-.7-3.4-1.1-.4-.1-.7-.2-1.1-.3-2.3-.7-4.5-1.3-6.8-1.8-11.7-2.8-23.9-4.3-36.5-4.3-41.7 0-79.5 16.4-107.4 43.2-2.9 2.8-5.7 5.7-8.3 8.6-3.6 4-4.1 6-10.1 12.5-6.6 7.2-20.1 12-21.6 12.5-2.7.9-14.1 4.6-27.7 3.9-2.4-.1-8.3-.6-14.9-1.3-4.4-.5-6.5-.8-10.6-1.1-3.8-.3-7.6-.4-11.5-.4-87.4 0-158.2 70.8-158.2 158.2 0 87.4 70.8 158.2 158.2 158.2 38.8 0 74.3-14 101.8-37.1 10-8.5 22.9-13.7 37-13.7 14.1 0 27.1 5.2 37 13.7l.1-.1c17.5 16.9 38.8 29.9 62.6 37.3 20.9 6.6 38.1 7.2 45.2 7.2 64.9.3 108.9-43.4 112.3-47 33.6-34.5 43.6-77.2 43.3-93.6-.2-10.4.1-20.8-.1-31.2-.1-5.4-.3-11.2.5-19.2.5-4.9 1.1-10.5 3.1-17.2.7-2.3 3.7-11.8 10.6-21.2 9.3-12.8 21.1-19 24.3-20.8 20.8-12 53.7-56 53.8-99.6z"/></svg>